<svg width="362" height="271" viewBox="0 0 362 271" fill="none" xmlns="http://www.w3.org/2000/svg">
<path fill-rule="evenodd" clip-rule="evenodd" d="M150.556 73.72V193.345H182.251V229.795L150.556 229.795V271H109.351V229.795H4.47508V198.969L77.1565 120.814C87.1354 109.812 94.491 100.211 99.2233 92.0115C104.058 83.812 106.476 76.0276 106.476 68.6584C106.476 58.5905 103.956 50.7024 98.9147 44.9938C93.8738 39.1815 86.6725 36.2753 77.3109 36.2753C67.2291 36.2753 59.2562 39.8042 53.3923 46.8621C47.6313 53.8161 44.7508 63.0017 44.7508 74.4188H0C0 60.6145 3.24058 48.0038 9.72173 36.5867C16.3057 25.1695 25.5645 16.2434 37.4981 9.80833C49.4316 3.26945 62.9597 0 78.0824 0C101.229 0 119.181 5.60477 131.938 16.8143C144.797 28.0238 151.227 43.8521 151.227 64.2991C151.227 67.4233 151.003 70.5636 150.556 73.72ZM62.0441 193.345H109.351V143.021L62.0441 193.345Z" fill="white"/>
<path fill-rule="evenodd" clip-rule="evenodd" d="M342.383 167.494C355.256 154.122 361.692 134.815 361.692 109.573V75.9743C361.383 51.4853 354.741 32.7216 341.765 19.6831C328.79 6.56104 310.047 0 285.538 0C261.028 0 242.234 6.60283 229.156 19.8085C216.18 33.0141 209.692 52.3629 209.692 77.8548V111.454C210.001 135.943 216.643 154.748 229.619 167.871C232.847 171.135 236.433 173.994 240.375 176.447C231.737 180.427 224.702 185.617 219.269 192.017C212.885 199.539 209.692 208.357 209.692 218.47C209.692 234.601 216.54 247.389 230.237 256.833C243.933 266.278 262.47 271 285.847 271C309.223 271 327.708 266.32 341.302 256.959C354.895 247.514 361.692 234.684 361.692 218.47C361.692 208.357 358.5 199.581 352.115 192.142C346.727 185.795 339.726 180.608 331.112 176.581C335.274 174.006 339.031 170.977 342.383 167.494ZM309.326 39.7423C314.475 46.5959 317.05 57.5867 317.05 72.7147V87.4542C307.914 84.7823 297.462 83.4463 285.692 83.4463C273.92 83.4463 263.467 84.7825 254.334 87.4549V69.9565C254.643 55.9986 257.269 45.7601 262.213 39.2408C267.259 32.638 275.034 29.3366 285.538 29.3366C296.351 29.3366 304.28 32.8052 309.326 39.7423ZM261.749 147.561C261.659 147.429 261.571 147.296 261.483 147.161C260.013 143.967 259.278 140.322 259.278 136.227C259.278 128.872 261.595 123.105 266.229 118.926C270.863 114.747 277.351 112.658 285.692 112.658C294.137 112.658 300.676 114.831 305.31 119.177C309.944 123.439 312.261 129.123 312.261 136.227C312.261 140.2 311.569 143.75 310.186 146.874C309.957 147.238 309.722 147.592 309.481 147.937C304.641 154.874 296.763 158.342 285.847 158.342C274.828 158.342 266.795 154.748 261.749 147.561ZM308.4 196.781C314.063 201.545 316.895 207.897 316.895 215.837C316.895 223.944 314.115 230.297 308.554 234.893C303.096 239.49 295.527 241.789 285.847 241.789C275.961 241.789 268.237 239.407 262.676 234.643C257.115 229.879 254.334 223.61 254.334 215.837C254.334 207.813 257.166 201.461 262.83 196.781C268.494 192.017 276.063 189.635 285.538 189.635C295.115 189.635 302.736 192.017 308.4 196.781Z" fill="white"/>
</svg>
