<svg width="330" height="311" viewBox="0 0 330 311" fill="none" xmlns="http://www.w3.org/2000/svg">
<path d="M41.7215 266.771C50.5115 259.978 60.2269 254.046 70.8677 248.975C48.6768 237.275 31.2581 221.635 18.6117 202.055C6.2039 182.476 0 160.03 0 134.72C0 90.3074 14.7939 54.9683 44.3818 28.7028C58.3683 16.1739 74.7275 6.60634 93.4594 0V107.319C93.4594 149.821 99.1861 181.459 110.639 202.233C122.331 222.768 140.943 233.035 166.475 233.035C191.767 233.035 210.021 223.126 221.236 203.307C232.451 183.489 238.297 153.164 238.774 112.333V0.803509C256.409 7.30787 271.904 16.4882 285.26 28.3447C315.087 54.3714 330 89.8299 330 134.72C330 160.03 323.677 182.476 311.03 202.055C298.384 221.635 280.965 237.275 258.774 248.975C270.175 254.464 280.509 260.899 289.777 268.28C270.258 289.575 245.627 303.815 215.885 311C202.954 298.542 185.873 292.313 164.642 292.313C144.023 292.313 127.298 298.317 114.467 310.325C85.259 302.764 61.0104 288.246 41.7215 266.771Z" fill="white"/>
</svg>
